<svg width="21" height="19" viewBox="0 0 21 19" fill="none" xmlns="http://www.w3.org/2000/svg">
<g clip-path="url(#clip0_11436_363)">
<path d="M10.0699 0.612343C10.4136 -0.204115 11.5844 -0.204114 11.9281 0.612346L13.9569 5.43123C14.1019 5.77543 14.4296 6.01061 14.8057 6.0404L20.0717 6.45748C20.9639 6.52814 21.3257 7.62813 20.6459 8.2034L16.6338 11.5987C16.3472 11.8412 16.222 12.2218 16.3096 12.5843L17.5354 17.661C17.743 18.5211 16.7959 19.201 16.032 18.7401L11.5236 16.0196C11.2015 15.8252 10.7965 15.8252 10.4745 16.0196L5.96601 18.7401C5.20213 19.201 4.25498 18.5211 4.46266 17.661L5.68845 12.5843C5.776 12.2218 5.65085 11.8412 5.36428 11.5987L1.35209 8.2034C0.672306 7.62813 1.03409 6.52814 1.92631 6.45748L7.19238 6.0404C7.56852 6.01061 7.89618 5.77543 8.04109 5.43123L10.0699 0.612343Z" fill="black"/>
</g>
<path d="M10.5303 0.806641C10.7023 0.398163 11.2958 0.398159 11.4678 0.806641L13.4961 5.625C13.7146 6.14358 14.2066 6.49471 14.7666 6.53906L20.0322 6.95605C20.4899 6.99232 20.6535 7.54121 20.3232 7.82129L16.3105 11.2168C15.881 11.5804 15.6909 12.1542 15.8232 12.7021L17.0498 17.7783C17.1492 18.1902 16.6882 18.5518 16.29 18.3115H16.2891L11.7822 15.5918C11.3013 15.3016 10.6967 15.3016 10.2158 15.5918L5.70801 18.3115C5.3098 18.5518 4.84885 18.1902 4.94824 17.7783L6.1748 12.7021C6.30711 12.1543 6.11716 11.5805 5.6875 11.2168L1.6748 7.82129C1.34447 7.54122 1.50812 6.99231 1.96582 6.95605L7.23145 6.53906C7.79146 6.49471 8.28358 6.14369 8.50195 5.625L10.5303 0.806641Z" stroke="black"/>
<defs>
<clipPath id="clip0_11436_363">
<rect width="11" height="19" fill="white" transform="translate(0.333008)"/>
</clipPath>
</defs>
</svg>
