<svg width="20" height="19" viewBox="0 0 20 19" fill="none" xmlns="http://www.w3.org/2000/svg">
<path d="M9.53101 0.806641C9.70298 0.398163 10.2965 0.398159 10.4685 0.806641L12.4968 5.625C12.7153 6.14358 13.2073 6.49471 13.7673 6.53906L19.033 6.95605C19.4906 6.99232 19.6543 7.54121 19.324 7.82129L15.3113 11.2168C14.8817 11.5804 14.6917 12.1542 14.824 12.7021L16.0505 17.7783C16.1499 18.1902 15.689 18.5518 15.2908 18.3115H15.2898L10.783 15.5918C10.302 15.3016 9.69746 15.3016 9.21655 15.5918L4.70874 18.3115C4.31053 18.5518 3.84959 18.1902 3.94897 17.7783L5.17554 12.7021C5.30785 12.1543 5.1179 11.5805 4.68823 11.2168L0.675537 7.82129C0.345198 7.54122 0.508853 6.99231 0.966553 6.95605L6.23218 6.53906C6.79219 6.49471 7.28431 6.14369 7.50269 5.625L9.53101 0.806641Z" stroke="black"/>
</svg>
